<?xml version="1.0" standalone="no"?>
<!DOCTYPE svg PUBLIC "-//W3C//DTD SVG 20010904//EN"
 "http://www.w3.org/TR/2001/REC-SVG-20010904/DTD/svg10.dtd">
<svg version="1.0" xmlns="http://www.w3.org/2000/svg"
 width="512.000000pt" height="512.000000pt" viewBox="0 0 512.000000 512.000000"
 preserveAspectRatio="xMidYMid meet">

<g transform="translate(0.000000,512.000000) scale(0.100000,-0.100000)"
fill="#fff" stroke="none">
<path d="M1085 5105 c-269 -44 -498 -160 -697 -353 -445 -432 -514 -1111 -165
-1632 64 -96 241 -273 337 -337 389 -261 870 -293 1285 -88 328 162 577 466
669 816 25 92 46 231 46 296 l0 33 -79 0 -78 0 -7 -84 c-41 -506 -403 -910
-911 -1018 -78 -16 -333 -16 -410 0 -183 40 -361 122 -495 230 -312 249 -469
656 -405 1047 99 612 674 1029 1284 930 343 -56 659 -283 808 -579 19 -39 37
-73 38 -74 4 -4 126 48 138 59 11 9 -43 115 -103 204 -186 274 -463 461 -790
536 -116 27 -345 33 -465 14z"/>
<path d="M4160 5040 l0 -79 111 -3 110 -3 -407 -475 -407 -475 -125 -5 -124
-5 -37 -42 c-20 -23 -378 -417 -796 -877 l-760 -836 -240 0 -240 0 -450 -450
-450 -450 58 -57 57 -58 428 428 427 427 239 0 240 0 41 45 c23 24 384 420
801 880 l759 835 119 0 119 0 36 39 c20 22 209 242 421 489 l385 450 3 -89 3
-89 79 0 80 0 0 215 c0 288 23 265 -265 265 l-215 0 0 -80z"/>
<path d="M1200 4561 l0 -78 -64 -5 c-129 -11 -248 -94 -303 -212 -24 -52 -28
-74 -28 -146 0 -72 4 -94 28 -146 36 -77 104 -145 182 -181 58 -27 68 -28 256
-33 191 -5 196 -6 236 -32 62 -41 88 -90 88 -168 0 -78 -26 -127 -88 -168
l-40 -27 -254 -3 -253 -3 0 -80 0 -79 120 0 120 0 0 -80 0 -80 80 0 80 0 0 80
0 80 43 0 c135 0 264 86 324 215 24 51 28 73 28 145 0 72 -4 94 -28 145 -42
90 -117 161 -207 195 -22 8 -106 15 -230 19 -182 6 -197 8 -233 30 -21 13 -50
42 -65 64 -22 34 -27 52 -27 106 0 79 25 128 88 169 l40 27 254 3 253 3 0 80
0 79 -120 0 -120 0 0 80 0 80 -80 0 -80 0 0 -79z"/>
<path d="M4335 4466 c-37 -17 -70 -52 -84 -89 -8 -20 -11 -663 -11 -2123 l0
-2094 -120 0 -120 0 -2 1629 c-3 1628 -3 1630 -24 1657 -11 15 -33 37 -48 48
-26 20 -40 21 -326 21 -286 0 -300 -1 -326 -21 -15 -11 -37 -33 -48 -48 -21
-27 -21 -29 -24 -1657 l-2 -1629 -120 0 -120 0 -2 1069 c-3 1063 -3 1070 -24
1097 -11 15 -33 37 -48 48 -26 20 -40 21 -326 21 -286 0 -300 -1 -326 -21 -15
-11 -37 -33 -48 -48 -21 -27 -21 -34 -24 -1097 l-2 -1069 -120 0 -120 0 -2
589 c-3 578 -3 590 -24 617 -11 15 -33 37 -48 48 -26 20 -40 21 -326 21 -286
0 -300 -1 -326 -21 -15 -11 -37 -33 -48 -48 -21 -27 -21 -39 -24 -617 l-2
-589 -120 0 -119 0 -3 269 c-3 254 -4 271 -24 297 -11 15 -33 37 -48 48 -26
20 -40 21 -326 21 -286 0 -300 -1 -326 -21 -15 -11 -37 -33 -48 -48 -20 -26
-21 -42 -24 -377 l-3 -349 2481 0 2480 0 0 1760 0 1760 -80 0 -80 0 0 -1680 0
-1680 -240 0 -240 0 0 2080 0 2080 240 0 240 0 0 -160 0 -160 81 0 80 0 -3
189 c-3 207 -6 216 -72 265 -26 20 -42 21 -314 23 -224 2 -294 0 -317 -11z
m-495 -2706 l0 -1600 -240 0 -240 0 0 1600 0 1600 240 0 240 0 0 -1600z
m-1040 -560 l0 -1040 -240 0 -240 0 0 1040 0 1040 240 0 240 0 0 -1040z
m-1040 -480 l0 -560 -240 0 -240 0 0 560 0 560 240 0 240 0 0 -560z m-1040
-320 l0 -240 -240 0 -240 0 0 240 0 240 240 0 240 0 0 -240z"/>
<path d="M2431 4159 c-35 -10 -65 -19 -66 -21 -4 -4 24 -140 29 -145 3 -3 148
15 152 20 8 8 -30 167 -40 166 -6 -1 -40 -10 -75 -20z"/>
<path d="M4880 3760 l0 -80 80 0 80 0 0 80 0 80 -80 0 -80 0 0 -80z"/>
<path d="M102 1097 c-39 -40 -72 -77 -72 -83 0 -13 92 -104 106 -104 5 0 43
34 84 75 l74 75 -54 55 c-30 30 -57 55 -60 55 -3 0 -38 -33 -78 -73z"/>
</g>
</svg>
